<svg xmlns="http://www.w3.org/2000/svg" viewBox="1059 1698 19 22.619">
  <g id="apple-logo_2_" data-name="apple-logo (2)" transform="translate(1059 1698)">
    <path id="Shape" d="M16.845,9.516A5.006,5.006,0,0,1,15.9,6.54a4.685,4.685,0,0,1,.886-2.763A8.733,8.733,0,0,1,18.346,2.2,6.971,6.971,0,0,0,16.927.867,5.065,5.065,0,0,0,14.022,0a7.847,7.847,0,0,0-2.36.454,6.957,6.957,0,0,1-1.95.454,8.943,8.943,0,0,1-1.882-.4,9.256,9.256,0,0,0-2.414-.4A4.743,4.743,0,0,0,1.541,2.029,7.8,7.8,0,0,0,0,7.02a13.465,13.465,0,0,0,2.005,6.713Q4.037,17.19,6.111,17.19a5.019,5.019,0,0,0,1.8-.454,5.354,5.354,0,0,1,1.937-.44,6.146,6.146,0,0,1,2.059.427,6.425,6.425,0,0,0,1.91.427q1.746,0,3.505-2.616A12.771,12.771,0,0,0,19,11.2,4.136,4.136,0,0,1,16.845,9.516Z" transform="translate(0 5.429)"/>
    <path id="Shape-2" data-name="Shape" d="M2.872,4.236a5.5,5.5,0,0,0,1.26-1.85A5.067,5.067,0,0,0,4.524.563c0-.036,0-.08-.007-.134S4.51.331,4.51.295A1.275,1.275,0,0,1,4.477.147,1.234,1.234,0,0,0,4.443,0,5.408,5.408,0,0,0,1.057,1.984,6.068,6.068,0,0,0,0,5.429,7.642,7.642,0,0,0,1.409,5.2,3.842,3.842,0,0,0,2.872,4.236Z" transform="translate(9.048)"/>
  </g>
</svg>
