<svg xmlns="http://www.w3.org/2000/svg" width="30" height="35" viewBox="0 0 30 35">
  <g id="box_copy" data-name="box copy" transform="translate(-63 -33.143)">
    <path id="Path_561" data-name="Path 561" d="M166.459,80.656l-2.833-1.692-14.248,8.509,2.833,1.692Z" transform="translate(-79.533 -42.19)" fill="#b4c817"/>
    <path id="Path_562" data-name="Path 562" d="M75.194,44.643l14.738-8.509-5.18-2.991L70.014,41.652Z" transform="translate(-6.458 0)" fill="#b4c817"/>
    <path id="Path_563" data-name="Path 563" d="M263,178.169l14.739-8.51V152.638L263,161.148Z" transform="translate(-184.739 -110.026)" fill="#b4c817"/>
    <path id="Path_564" data-name="Path 564" d="M143.81,207.95l1.122,1.274v-9.081L142,198.468v9.812l1.167-.476A.578.578,0,0,1,143.81,207.95Z" transform="translate(-72.873 -152.224)" fill="#b4c817"/>
    <path id="Path_565" data-name="Path 565" d="M73.3,168.5a.555.555,0,0,1-.971.367l-1.831-2.08-1.552.641a.585.585,0,0,1-.535-.052.569.569,0,0,1-.262-.461V155.629L63,152.638v17.021l14.739,8.51V161.148L73.3,158.586Z" transform="translate(0 -110.026)" fill="#b4c817"/>
    <path id="Path_566" data-name="Path 566" d="M215.1,108.4l-14.738,8.509,4.409,2.546,14.738-8.509Z" transform="translate(-127.062 -69.292)" fill="#b4c817"/>
  </g>
</svg>
