<svg xmlns="http://www.w3.org/2000/svg" width="36" height="35" viewBox="0 0 36 35">
  <g id="shopping-store-cart-copy" transform="translate(0 -10.893)">
    <g id="Group_6916" data-name="Group 6916" transform="translate(0 10.893)">
      <path id="Path_567" data-name="Path 567" d="M35.618,20.974a1.824,1.824,0,0,1,.357,1.447l-1.509,8.762a1.658,1.658,0,0,1-.616,1.125,1.853,1.853,0,0,1-1.211.442h-22L10.2,35.242H31.17a1.889,1.889,0,0,1,0,3.778H7.977a1.835,1.835,0,0,1-1.43-.683A1.968,1.968,0,0,1,6.11,36.77L7.1,31.3,5.594,15.951,1.3,14.584A1.763,1.763,0,0,1,.212,13.66a2.019,2.019,0,0,1-.139-1.447,1.762,1.762,0,0,1,.933-1.105,1.92,1.92,0,0,1,1.41-.141L7.9,12.735a1.682,1.682,0,0,1,.854.6,2.115,2.115,0,0,1,.417,1L9.486,17.4l24.862,2.813A1.765,1.765,0,0,1,35.618,20.974ZM10.8,40.065a2.741,2.741,0,0,1,2.025.844,2.807,2.807,0,0,1,.834,2.05,2.876,2.876,0,0,1-.834,2.07,2.806,2.806,0,0,1-4.051,0,2.875,2.875,0,0,1-.834-2.07,2.807,2.807,0,0,1,.834-2.05A2.741,2.741,0,0,1,10.8,40.065Zm16.958,0a2.741,2.741,0,0,1,2.026.844,2.808,2.808,0,0,1,.834,2.05,2.876,2.876,0,0,1-.834,2.07,2.806,2.806,0,0,1-4.051,0,2.875,2.875,0,0,1-.834-2.07,2.807,2.807,0,0,1,.834-2.05A2.741,2.741,0,0,1,27.755,40.065Z" transform="translate(0 -10.893)" fill="#fff"/>
    </g>
  </g>
</svg>
