<svg id="store" xmlns="http://www.w3.org/2000/svg" width="35" height="35" viewBox="0 0 35 35">
  <path id="Path_560" data-name="Path 560" d="M0,14.219A4.367,4.367,0,0,0,3.281,18.44V32.813H1.094a1.094,1.094,0,0,0,0,2.188H33.906a1.094,1.094,0,0,0,0-2.187H31.719V18.44A4.367,4.367,0,0,0,35,14.219V13.125H0Zm21.875,4.375a4.374,4.374,0,0,0,4.375-4.375,4.367,4.367,0,0,0,3.281,4.221V32.813H13.125V18.594A4.374,4.374,0,0,0,17.5,14.219,4.377,4.377,0,0,0,21.875,18.594Zm-9.844-.154V32.813H5.469V18.44A4.367,4.367,0,0,0,8.75,14.219,4.367,4.367,0,0,0,12.031,18.44ZM30.625,3.281H4.375L0,12.031H35ZM9.241,5.712,7.054,10.087a.552.552,0,0,1-.491.3.529.529,0,0,1-.244-.058A.545.545,0,0,1,6.075,9.6L8.263,5.225a.547.547,0,0,1,.978.487Zm4.375,0-2.187,4.375a.552.552,0,0,1-.491.3.529.529,0,0,1-.244-.058A.545.545,0,0,1,10.45,9.6l2.188-4.375a.547.547,0,0,1,.978.487Zm4.431,4.131a.547.547,0,0,1-1.094,0V5.469a.547.547,0,0,1,1.094,0Zm6.281.479a.546.546,0,0,1-.743-.216L21.191,5.732a.548.548,0,0,1,.961-.526l2.393,4.375A.549.549,0,0,1,24.327,10.322Zm4.354.011a.511.511,0,0,1-.243.058.541.541,0,0,1-.487-.3L25.763,5.712a.546.546,0,1,1,.978-.487L28.929,9.6A.547.547,0,0,1,28.681,10.333ZM9.3,26.417V23.9a1.082,1.082,0,0,1-.547-.927,1.094,1.094,0,1,1,2.188,0,1.077,1.077,0,0,1-.547.927v2.521a1.077,1.077,0,0,1,.547.927A1.094,1.094,0,1,1,9.3,26.417ZM4.375,1.094A1.094,1.094,0,0,1,5.469,0H29.531a1.094,1.094,0,0,1,0,2.188H5.469A1.094,1.094,0,0,1,4.375,1.094Zm14.8,23.355-.773-.773,3.093-3.093.773.773Zm0,3.093-.773-.773,6.187-6.187.773.773Zm5.413-3.867.773.773-3.093,3.093-.773-.773Z" fill="#b4c817"/>
</svg>
